<svg width="483" height="500" viewBox="0 0 483 500" fill="none" xmlns="http://www.w3.org/2000/svg">
<path d="M56.1614 362.544C53.6761 360.496 52.2781 357.574 51.9432 353.831C51.608 350.084 52.3419 345.541 54.091 340.301C57.5891 329.822 65.1162 316.647 76.0506 301.657C97.9146 271.685 133.337 234.545 177.138 197.35C220.939 160.156 264.802 129.971 300.301 111.233C318.054 101.862 333.69 95.368 346.164 92.2844C352.401 90.7426 357.82 90.0603 362.305 90.2843C366.784 90.508 370.298 91.6332 372.783 93.681C375.269 95.7287 376.667 98.6506 377.001 102.394C377.337 106.141 376.603 110.684 374.854 115.924C371.356 126.403 363.828 139.578 352.894 154.567C331.03 184.54 295.608 221.68 251.807 258.874C208.006 296.069 164.143 326.254 128.644 344.992C110.891 354.363 95.2551 360.857 82.7811 363.94C76.5439 365.482 71.1243 366.164 66.64 365.941C62.1604 365.717 58.6467 364.592 56.1614 362.544Z" stroke="#1E5128"/>
<path d="M82.7253 384.431C80.2401 382.383 78.842 379.461 78.5072 375.718C78.1719 371.971 78.9058 367.428 80.6549 362.188C84.153 351.709 91.6802 338.534 102.615 323.544C124.479 293.572 159.901 256.432 203.702 219.237C247.503 182.043 291.366 151.858 326.865 133.12C344.618 123.749 360.254 117.255 372.728 114.171C378.965 112.63 384.384 111.947 388.869 112.171C393.348 112.395 396.862 113.52 399.347 115.568C401.833 117.616 403.231 120.538 403.565 124.281C403.901 128.028 403.167 132.571 401.418 137.811C397.92 148.29 390.392 161.465 379.458 176.454C357.594 206.427 322.172 243.567 278.371 280.761C234.57 317.956 190.707 348.141 155.208 366.879C137.455 376.25 121.819 382.744 109.345 385.827C103.108 387.369 97.6883 388.052 93.204 387.828C88.7244 387.604 85.2106 386.479 82.7253 384.431Z" stroke="#1E5128"/>
<path d="M109.289 406.319C106.803 404.271 105.405 401.349 105.07 397.606C104.735 393.859 105.469 389.316 107.218 384.076C110.716 373.597 118.243 360.422 129.178 345.433C151.042 315.46 186.464 278.32 230.265 241.126C274.066 203.931 317.929 173.746 353.428 155.008C371.181 145.637 386.817 139.143 399.291 136.06C405.528 134.518 410.948 133.835 415.432 134.059C419.911 134.283 423.425 135.408 425.911 137.456C428.396 139.504 429.794 142.426 430.129 146.169C430.464 149.916 429.73 154.459 427.981 159.699C424.483 170.178 416.956 183.353 406.021 198.343C384.157 228.315 348.735 265.455 304.934 302.65C261.133 339.844 217.27 370.029 181.771 388.767C164.018 398.138 148.382 404.632 135.908 407.716C129.671 409.257 124.252 409.94 119.767 409.716C115.288 409.492 111.774 408.367 109.289 406.319Z" stroke="#1E5128"/>
<path d="M134.77 349.831C133.45 351.722 131.734 353.371 129.729 354.505C126.359 356.412 122.682 356.369 122.682 356.369C122.022 356.742 122.61 359.847 121.466 360.494C120.359 361.12 119.308 360.444 119 359.85C118.296 358.495 120.355 355.964 119.964 355.21C119.964 355.21 119.001 354.632 118.193 353.077C116.042 348.933 117.841 344.091 120.948 340.749C123.191 338.336 129.468 336.114 130.408 333.357C130.789 332.284 130.827 331.468 131.934 330.841C133.422 329.999 135.891 333.539 136.467 334.648C138.824 339.189 138.622 344.367 134.77 349.831ZM122.738 352.635C123.43 347.481 125.924 344.009 130.752 341.744C131.127 341.568 131.303 341.119 131.145 340.743C130.986 340.366 130.552 340.204 130.176 340.38C124.889 342.863 122.046 346.776 121.276 352.487C121.22 352.9 121.503 353.27 121.906 353.312C122.31 353.353 122.684 353.052 122.738 352.635Z" fill="#6DDC56"/>
<path d="M250.151 227.098C250.615 228.329 250.826 229.698 250.691 231.07C250.463 233.377 249.187 235.288 249.187 235.288C249.142 235.74 250.844 236.32 250.766 237.103C250.691 237.86 250.006 238.217 249.614 238.208C248.719 238.189 248.198 236.388 247.7 236.378C247.7 236.378 247.092 236.716 246.064 236.694C243.328 236.634 241.601 234.31 241.046 231.729C240.645 229.867 241.712 225.949 240.701 224.67C240.312 224.164 239.93 223.911 240.005 223.153C240.106 222.134 242.659 221.855 243.392 221.871C246.391 221.936 248.825 223.522 250.151 227.098ZM247.401 234.191C245.147 232.356 244.319 230.059 244.872 226.887C244.915 226.641 244.758 226.421 244.522 226.396C244.286 226.371 244.059 226.552 244.016 226.798C243.412 230.273 244.333 232.878 246.831 234.913C247.012 235.06 247.287 235.018 247.445 234.819C247.603 234.62 247.585 234.339 247.401 234.191Z" fill="#6DDC56"/>
</svg>
