<svg width="380" height="322" viewBox="0 0 380 322" fill="none" xmlns="http://www.w3.org/2000/svg">
    <!-- Large leaf with animation -->
    <path d="M5.16138 273.544C2.67609 271.496 1.27807 268.574 0.943193 264.831C0.607985 261.084 1.34186 256.541 3.09096 251.301C6.58907 240.822 14.1162 227.647 25.0506 212.657C46.9146 182.685 82.3367 145.545 126.138 108.35C169.939 71.1561 213.802 40.9708 249.301 22.2328C267.054 12.8619 282.69 6.36797 295.164 3.2844C301.401 1.74257 306.82 1.06035 311.305 1.28427C315.784 1.50795 319.298 2.6332 321.783 4.68097C324.269 6.72874 325.667 9.6506 326.001 13.3938C326.337 17.141 325.603 21.684 323.854 26.9238C320.356 37.4032 312.828 50.578 301.894 65.5675C280.03 95.54 244.608 132.68 200.807 169.874C157.006 207.069 113.143 237.254 77.6438 255.992C59.8906 265.363 44.2551 271.857 31.7811 274.94C25.5439 276.482 20.1243 277.164 15.64 276.941C11.1604 276.717 7.64666 275.592 5.16138 273.544Z" 
        stroke="#1E5128" 
        stroke-width="2"
        filter="url(#glow)">
        <animate
            attributeName="stroke-width"
            values="2;3;2"
            dur="3s"
            repeatCount="indefinite"
        />
        <animate
            attributeName="opacity"
            values="0.6;1;0.6"
            dur="4s"
            repeatCount="indefinite"
        />
        <animateTransform
            attributeName="transform"
            type="translate"
            values="0,0; 5,-5; 0,0"
            dur="6s"
            repeatCount="indefinite"
        />
    </path>

    <!-- Middle leaf with different timing -->
    <path d="M31.7253 295.431C29.2401 293.383 27.842 290.461 27.5072 286.718C27.1719 282.971 27.9058 278.428 29.6549 273.188C33.153 262.709 40.6802 249.534 51.6145 234.544C73.4786 204.572 108.901 167.432 152.702 130.237C196.503 93.0432 240.366 62.8578 275.865 44.1199C293.618 34.7489 309.254 28.255 321.728 25.1714C327.965 23.6296 333.384 22.9474 337.869 23.1713C342.348 23.395 345.862 24.5202 348.347 26.568C350.833 28.6158 352.231 31.5376 352.565 35.2809C352.901 39.028 352.167 43.5711 350.418 48.8109C346.92 59.2902 339.392 72.4651 328.458 87.4545C306.594 117.427 271.172 154.567 227.371 191.761C183.57 228.956 139.707 259.141 104.208 277.879C86.4546 287.25 70.8191 293.744 58.345 296.827C52.1079 298.369 46.6883 299.052 42.204 298.828C37.7244 298.604 34.2106 297.479 31.7253 295.431Z" 
        stroke="#1E5128" 
        stroke-width="2"
        filter="url(#glow)">
        <animate
            attributeName="stroke-width"
            values="2;3;2"
            dur="4s"
            repeatCount="indefinite"
        />
        <animate
            attributeName="opacity"
            values="0.4;0.8;0.4"
            dur="5s"
            repeatCount="indefinite"
        />
        <animateTransform
            attributeName="transform"
            type="translate"
            values="0,0; -5,5; 0,0"
            dur="7s"
            repeatCount="indefinite"
        />
    </path>

    <!-- Last large leaf with unique animation -->
    <path d="M58.2886 317.319C55.8033 315.271 54.4053 312.349 54.0704 308.606C53.7352 304.859 54.4691 300.316 56.2182 295.076C59.7163 284.597 67.2434 271.422 78.1778 256.433C100.042 226.46 135.464 189.32 179.265 152.126C223.066 114.931 266.929 84.7459 302.428 66.008C320.181 56.637 335.817 50.1431 348.291 47.0595C354.528 45.5177 359.948 44.8355 364.432 45.0594C368.911 45.2831 372.425 46.4083 374.911 48.4561C377.396 50.5039 378.794 53.4257 379.129 57.169C379.464 60.9161 378.73 65.4591 376.981 70.699C373.483 81.1783 365.956 94.3532 355.021 109.343C333.157 139.315 297.735 176.455 253.934 213.65C210.133 250.844 166.27 281.029 130.771 299.767C113.018 309.138 97.3823 315.632 84.9083 318.716C78.6711 320.257 73.2515 320.94 68.7672 320.716C64.2876 320.492 60.7739 319.367 58.2886 317.319Z" 
        stroke="#1E5128" 
        stroke-width="2"
        filter="url(#glow)">
        <animate
            attributeName="stroke-width"
            values="2;3;2"
            dur="5s"
            repeatCount="indefinite"
        />
        <animate
            attributeName="opacity"
            values="0.5;0.9;0.5"
            dur="6s"
            repeatCount="indefinite"
        />
        <animateTransform
            attributeName="transform"
            type="translate"
            values="0,0; 3,-3; 0,0"
            dur="8s"
            repeatCount="indefinite"
        />
    </path>

    <!-- Small leaf with rotation and color change -->
    <path d="M83.77 260.831C82.4498 262.722 80.7335 264.371 78.7288 265.505C75.3588 267.412 71.6818 267.369 71.6818 267.369C71.0217 267.742 71.6099 270.847 70.4661 271.494C69.3592 272.12 68.3079 271.444 67.9997 270.85C67.2962 269.495 69.3552 266.964 68.9641 266.21C68.9641 266.21 68.001 265.632 67.1933 264.077C65.0423 259.933 66.8407 255.091 69.9482 251.749C72.1908 249.336 78.468 247.114 79.4078 244.357C79.7892 243.284 79.827 242.468 80.9339 241.841C82.4221 240.999 84.891 244.539 85.467 245.648C87.8242 250.189 87.6219 255.367 83.77 260.831Z" 
        fill="#6DDC56"
        filter="url(#glow)">
        <animateTransform
            attributeName="transform"
            type="rotate"
            values="0 80 260; 5 80 260; 0 80 260"
            dur="4s"
            repeatCount="indefinite"
        />
        <animate
            attributeName="fill"
            values="#6DDC56;#4FB843;#6DDC56"
            dur="3s"
            repeatCount="indefinite"
        />
    </path>

    <!-- Small leaf with scaling and movement -->
    <path d="M199.151 138.098C199.615 139.329 199.826 140.698 199.691 142.07C199.463 144.377 198.187 146.288 198.187 146.288C198.142 146.74 199.844 147.32 199.766 148.103C199.691 148.86 199.006 149.217 198.614 149.208C197.719 149.189 197.198 147.388 196.7 147.378C196.7 147.378 196.092 147.716 195.064 147.694C192.328 147.634 190.601 145.31 190.046 142.729C189.645 140.867 190.712 136.949 189.701 135.67Z" 
        fill="#6DDC56"
        filter="url(#glow)">
        <animateTransform
            attributeName="transform"
            type="scale"
            values="1;1.1;1"
            dur="5s"
            repeatCount="indefinite"
        />
        <animate
            attributeName="fill"
            values="#6DDC56;#4FB843;#6DDC56"
            dur="4s"
            repeatCount="indefinite"
        />
    </path>

    <!-- Add enhanced glow effect -->
    <defs>
        <filter id="glow" x="-50%" y="-50%" width="200%" height="200%">
            <feGaussianBlur stdDeviation="2" result="coloredBlur"/>
            <feMerge>
                <feMergeNode in="coloredBlur"/>
                <feMergeNode in="SourceGraphic"/>
            </feMerge>
        </filter>
    </defs>
</svg>
