<svg width="22" height="21" viewBox="0 0 22 21" fill="none" xmlns="http://www.w3.org/2000/svg">
<path fill-rule="evenodd" clip-rule="evenodd" d="M10.5528 0.105571C10.8343 -0.0351903 11.1657 -0.0351903 11.4472 0.105571L21.4471 5.10557C21.8619 5.31298 22.0797 5.77838 21.9731 6.22975C21.8666 6.68112 21.4637 7 20.9999 7H1.00009C0.536316 7 0.133399 6.68112 0.0268499 6.22975C-0.0797072 5.77838 0.138069 5.31298 0.552875 5.10557L10.5528 0.105571ZM5.23612 5H16.7639L11 2.11803L5.23612 5ZM5.00006 8C5.55233 8 6.00005 8.44772 6.00005 9V14C6.00005 14.5523 5.55233 15 5.00006 15C4.44777 15 4.00007 14.5523 4.00007 14V9C4.00007 8.44772 4.44777 8 5.00006 8ZM9.00002 8C9.55234 8 10 8.44772 10 9V14C10 14.5523 9.55234 15 9.00002 15C8.44774 15 8.00003 14.5523 8.00003 14V9C8.00003 8.44772 8.44774 8 9.00002 8ZM13 8C13.5523 8 14 8.44772 14 9V14C14 14.5523 13.5523 15 13 15C12.4477 15 12 14.5523 12 14V9C12 8.44772 12.4477 8 13 8ZM17 8C17.5523 8 18 8.44772 18 9V14C18 14.5523 17.5523 15 17 15C16.4477 15 16 14.5523 16 14V9C16 8.44772 16.4477 8 17 8ZM2.00008 17C2.00008 16.4477 2.44779 16 3.00007 16H19C19.5523 16 20 16.4477 20 17C20 17.5523 19.5523 18 19 18H3.00007C2.44779 18 2.00008 17.5523 2.00008 17ZM9.613e-05 20C9.613e-05 19.4477 0.447806 19 1.00009 19H20.9999C21.5522 19 21.9999 19.4477 21.9999 20C21.9999 20.5523 21.5522 21 20.9999 21H1.00009C0.447806 21 9.613e-05 20.5523 9.613e-05 20Z" fill="#00A340"/>
</svg>
