<svg width="29" height="29" viewBox="0 0 29 29" fill="none" xmlns="http://www.w3.org/2000/svg">
<path d="M21.0786 12.0833H7.92126C7.42275 12.0833 6.94465 12.2814 6.59215 12.6338C6.23966 12.9863 6.04163 13.4644 6.04163 13.963V27.1203C6.04163 27.6189 6.23966 28.097 6.59215 28.4495C6.94465 28.8019 7.42275 29 7.92126 29H21.0786C21.5772 29 22.0553 28.8019 22.4078 28.4495C22.7602 28.097 22.9583 27.6189 22.9583 27.1203V13.963C22.9583 13.4644 22.7602 12.9863 22.4078 12.6338C22.0553 12.2814 21.5772 12.0833 21.0786 12.0833ZM21.0786 25.2407C21.0786 25.7392 20.8807 26.2173 20.5281 26.5698C20.1756 26.9224 19.6975 27.1203 19.199 27.1203C18.7005 27.1203 18.2225 26.9224 17.8699 26.5698C17.5174 26.2173 17.3194 25.7392 17.3194 25.2407C17.3194 24.7422 17.5174 24.2642 17.8699 23.9116C18.2225 23.5591 18.7005 23.361 19.199 23.361C19.6975 23.361 20.1756 23.5591 20.5281 23.9116C20.8807 24.2642 21.0786 24.7422 21.0786 25.2407ZM21.0786 15.3726C21.0786 15.7465 20.9301 16.1051 20.6657 16.3695C20.4013 16.6339 20.0428 16.7824 19.669 16.7824H9.33097C8.95709 16.7824 8.59853 16.6339 8.33415 16.3695C8.06978 16.1051 7.92126 15.7465 7.92126 15.3726C7.92126 14.9988 8.06978 14.6403 8.33415 14.3759C8.59853 14.1115 8.95709 13.963 9.33097 13.963H19.669C20.0428 13.963 20.4013 14.1115 20.6657 14.3759C20.9301 14.6403 21.0786 14.9988 21.0786 15.3726Z" fill="#00A340"/>
<path d="M10.2224 9.01415L8.51868 7.3104C10.0533 5.77581 12.1679 4.83331 14.5 4.83331C16.832 4.83331 18.9466 5.77581 20.4812 7.3104L18.7775 9.01415C17.6779 7.92665 16.1675 7.24998 14.5 7.24998C12.8325 7.24998 11.322 7.92665 10.2224 9.01415Z" fill="white"/>
<path d="M5.09912 3.89083C7.5037 1.48625 10.8266 0 14.5 0C18.1733 0 21.4962 1.48625 23.8887 3.90292L22.185 5.60667C20.2275 3.63708 17.5087 2.41667 14.5 2.41667C11.4912 2.41667 8.77245 3.63708 6.80287 5.59458L5.09912 3.89083Z" fill="white"/>
</svg>
