<svg width="28" height="23" viewBox="0 0 28 23" fill="none" xmlns="http://www.w3.org/2000/svg">
<path d="M18.1346 9.73082V8.92623L18.5689 8.90896C18.3681 3.91315 14.2918 0 9.28847 0C4.16697 9.43586e-05 0 4.16659 0 9.28847C0 14.2609 3.93079 18.3212 8.84612 18.5543V21.673C8.84612 22.4046 9.44143 23 10.1731 23H14.1538C14.8854 23 15.4808 22.4047 15.4808 21.673V14.1538C15.4808 13.4222 14.8854 12.8268 14.1538 12.8268H13.9543C14.2379 11.8622 14.397 10.8254 14.4316 9.73073H18.1346V9.73082ZM6.40591 14.0756C6.64605 14.4197 7.0433 14.6462 7.49358 14.6462C8.13314 14.6462 8.66787 14.1914 8.79262 13.5886C8.81036 13.5877 8.828 13.5868 8.84574 13.5859V14.1539V17.3606C8.13626 16.878 6.96725 15.8881 6.10519 14.1928C6.20512 14.1521 6.30504 14.1122 6.40591 14.0756ZM7.05123 13.3191C7.05123 13.0754 7.24938 12.8767 7.49358 12.8767C7.73778 12.8767 7.93593 13.0754 7.93593 13.3191C7.93593 13.5628 7.73778 13.7614 7.49358 13.7614C7.24938 13.7615 7.05123 13.5629 7.05123 13.3191ZM7.582 17.5176C6.14671 17.2203 4.84947 16.5512 3.78255 15.6223C4.24566 15.2202 4.75341 14.8717 5.29125 14.5798C5.97375 15.9393 6.84336 16.8894 7.582 17.5176ZM8.84612 12.7013C8.78601 12.704 8.72581 12.7062 8.66561 12.7102C8.44406 12.2856 8.00482 11.9923 7.49349 11.9923C6.79637 11.9923 6.22889 12.5346 6.17671 13.2188C6.03074 13.271 5.88609 13.3267 5.74238 13.3865C5.34655 12.3811 5.0696 11.1722 5.02186 9.73129H8.84612V12.7013ZM5.02544 8.84621C5.06875 7.5184 5.30852 6.29674 5.74106 5.19369C6.71899 5.59839 7.76722 5.82532 8.84602 5.87618V8.84631L5.02544 8.84621ZM9.73073 1.21638C10.4415 1.69761 11.614 2.68573 12.4774 4.3855C11.6114 4.74114 10.6843 4.94194 9.73073 4.99147V1.21638ZM10.9847 1.05625C12.4262 1.34904 13.7274 2.01342 14.7965 2.9405C14.3245 3.35181 13.8172 3.70971 13.2767 4.0025C12.5911 2.63751 11.722 1.6844 10.9847 1.05625ZM6.17813 2.69507C6.17813 2.45134 6.37628 2.25272 6.62048 2.25272C6.86468 2.25272 7.06283 2.45134 7.06283 2.69507C7.06283 2.9388 6.86468 3.13742 6.62048 3.13742C6.37628 3.13733 6.17813 2.93918 6.17813 2.69507ZM7.14417 1.4769C6.9832 1.40745 6.80665 1.36858 6.62048 1.36858C6.56604 1.36858 6.5148 1.3783 6.46215 1.38452C6.83279 1.25138 7.21145 1.13504 7.6037 1.05502C7.45461 1.18146 7.30118 1.323 7.14417 1.4769ZM5.29352 2.69507C5.29352 3.0007 5.40184 3.27934 5.57612 3.50401C5.48101 3.6681 5.38816 3.83398 5.30229 4.00382C4.76398 3.71282 4.25887 3.35718 3.78869 2.94852C4.39683 2.42039 5.08027 1.97898 5.8224 1.64146C5.50318 1.88387 5.29352 2.26376 5.29352 2.69507ZM6.31967 3.98476C6.41657 4.00731 6.5165 4.02232 6.62048 4.02232C7.35204 4.02232 7.94745 3.42701 7.94745 2.69545C7.94745 2.47295 7.88734 2.26593 7.78996 2.08155C8.18363 1.70072 8.55379 1.41368 8.84621 1.216V4.99195C7.893 4.94241 6.96593 4.74161 6.09991 4.38598C6.16888 4.24934 6.24408 4.11658 6.31967 3.98476ZM9.73073 5.87609C10.8095 5.82523 11.8574 5.59829 12.8353 5.19359C12.9375 5.45411 13.0308 5.72879 13.1153 6.01715C12.7593 6.2556 12.5239 6.66068 12.5239 7.1203C12.5239 7.74127 12.9548 8.26015 13.532 8.40386C13.5417 8.54983 13.5497 8.69665 13.5545 8.84574H9.73073V5.87609ZM13.8504 7.56303C13.6062 7.56303 13.4081 7.36441 13.4081 7.12068C13.4081 6.87695 13.6062 6.67832 13.8504 6.67832C14.0945 6.67832 14.2928 6.87695 14.2928 7.12068C14.2928 7.36431 14.0945 7.56303 13.8504 7.56303ZM14.4121 8.31856C14.8629 8.10625 15.1778 7.65116 15.1778 7.12077C15.1778 6.43167 14.6475 5.86995 13.9747 5.80626C13.8743 5.4577 13.7624 5.12735 13.6385 4.8155C14.2807 4.47401 14.8805 4.0477 15.4356 3.55581C16.7382 4.95175 17.571 6.79306 17.6771 8.84621H14.4394C14.4334 8.66797 14.424 8.49274 14.4121 8.31856ZM3.15233 3.56506C3.70433 4.05289 4.30096 4.47618 4.93929 4.8155C4.45316 6.03451 4.18603 7.38309 4.1414 8.84621H0.907164C1.01379 6.80939 1.8449 4.96581 3.15233 3.56506ZM0.907164 9.73082H4.13781C4.18603 11.3266 4.49034 12.662 4.9291 13.7691C4.29039 14.1101 3.69112 14.5258 3.14705 15.0058C1.84263 13.6054 1.01379 11.7645 0.907164 9.73082ZM14.5961 14.1539V21.6731C14.5961 21.9169 14.398 22.1155 14.1538 22.1155H10.173C9.92879 22.1155 9.73063 21.9169 9.73063 21.6731V18.1347V14.1539C9.73063 13.9102 9.92879 13.7115 10.173 13.7115H14.1538C14.398 13.7115 14.5961 13.9101 14.5961 14.1539ZM13.0295 12.8269H10.1731C10.0174 12.8269 9.86963 12.8587 9.73073 12.9083V9.73082H13.547C13.5103 10.8357 13.3368 11.8729 13.0295 12.8269Z" fill="white"/>
<path d="M13.7115 20.3462H10.6154V21.2308H13.7115V20.3462Z" fill="white"/>
<path d="M25.0068 13.2693H21.7642C21.4701 13.2693 21.2308 13.03 21.2308 12.7359V9.95201C21.2308 8.85462 20.3378 7.96161 19.2404 7.96161C18.143 7.96161 17.25 8.85462 17.25 9.95201V12.2308C17.25 13.2393 16.4676 14.0592 15.479 14.1384C15.4795 14.1437 15.4808 14.1486 15.4808 14.1539V21.6731H16.0102C16.3614 21.6731 16.687 21.8479 16.882 22.1397C17.2411 22.6781 17.8423 23 18.4898 23H25.0068C26.3394 23 27.4231 21.9164 27.4231 20.5837V15.6856C27.423 14.3529 26.3394 13.2693 25.0068 13.2693Z" fill="#00A340"/>
</svg>
