<svg width="15" height="15" viewBox="0 0 15 15" fill="none" xmlns="http://www.w3.org/2000/svg">
<path d="M4.82353 1H7.12667C7.68774 1 7.96831 1 8.23236 1.06068C8.46644 1.11448 8.69019 1.20322 8.89551 1.32364C9.12699 1.45946 9.32535 1.64939 9.72216 2.02924L14 6.12464M4.09691 6.1611H4.10455M5.59724 3.19627H4.67059C3.38576 3.19627 2.74335 3.19627 2.25261 3.43565C1.82094 3.64622 1.46999 3.9822 1.25004 4.39546C1 4.86527 1 5.48028 1 6.71031V7.59746C1 8.13459 1 8.4032 1.06339 8.65599C1.11958 8.88008 1.21227 9.09429 1.33806 9.29086C1.47993 9.51246 1.67832 9.70237 2.07509 10.0823L4.52215 12.4249C5.43066 13.2947 5.88491 13.7296 6.40869 13.8925C6.8695 14.0358 7.36579 14.0358 7.82661 13.8925C8.35035 13.7296 8.80467 13.2947 9.71314 12.4249L10.6398 11.5378C11.5483 10.6681 12.0026 10.2331 12.1727 9.73172C12.3225 9.29057 12.3225 8.81544 12.1727 8.37428C12.0026 7.87287 11.5483 7.43794 10.6398 6.56821L8.19275 4.22551C7.79594 3.84566 7.59758 3.65573 7.3661 3.51992C7.16078 3.39949 6.93702 3.31076 6.70295 3.25696C6.43889 3.19627 6.15832 3.19627 5.59724 3.19627ZM4.47926 6.1611C4.47926 6.36323 4.30808 6.52714 4.09691 6.52714C3.88574 6.52714 3.71455 6.36323 3.71455 6.1611C3.71455 5.95894 3.88574 5.79505 4.09691 5.79505C4.30808 5.79505 4.47926 5.95894 4.47926 6.1611Z" stroke="#00A340" stroke-width="1.5" stroke-linecap="round" stroke-linejoin="round"/>
</svg>
