<svg width="612" height="704" viewBox="0 0 612 704" fill="none" xmlns="http://www.w3.org/2000/svg">
<mask id="path-1-inside-1_2016_12" fill="white">
<path fill-rule="evenodd" clip-rule="evenodd" d="M497.22 525.017H139.156V573.147H139.159C139.193 599.575 156.672 625.996 191.597 646.16C261.514 686.527 374.872 686.527 444.79 646.16C479.749 625.977 497.228 599.523 497.228 573.069H497.22V525.017Z"/>
</mask>
<path fill-rule="evenodd" clip-rule="evenodd" d="M497.22 525.017H139.156V573.147H139.159C139.193 599.575 156.672 625.996 191.597 646.16C261.514 686.527 374.872 686.527 444.79 646.16C479.749 625.977 497.228 599.523 497.228 573.069H497.22V525.017Z" fill="#DCE8E6"/>
<path d="M139.156 525.017V524.127H138.265V525.017H139.156ZM497.22 525.017H498.11V524.127H497.22V525.017ZM139.156 573.147H138.265V574.037H139.156V573.147ZM139.159 573.147L140.049 573.146L140.048 572.257H139.159V573.147ZM191.597 646.16L192.042 645.389L191.597 646.16ZM444.79 646.16L445.235 646.931L444.79 646.16ZM497.228 573.069H498.118V572.179H497.228V573.069ZM497.22 573.069H496.33V573.96H497.22V573.069ZM139.156 525.907H497.22V524.127H139.156V525.907ZM140.046 573.147V525.017H138.265V573.147H140.046ZM139.159 572.257H139.156V574.037H139.159V572.257ZM138.268 573.148C138.303 600.006 156.065 626.674 191.152 646.931L192.042 645.389C157.279 625.319 140.083 599.144 140.049 573.146L138.268 573.148ZM191.152 646.931C226.277 667.211 272.259 677.325 318.193 677.325C364.127 677.325 410.109 667.211 445.235 646.931L444.345 645.389C409.553 665.476 363.897 675.545 318.193 675.545C272.489 675.545 226.833 665.476 192.042 645.389L191.152 646.931ZM445.235 646.931C480.356 626.654 498.118 599.953 498.118 573.069H496.338C496.338 599.093 479.141 625.299 444.345 645.389L445.235 646.931ZM497.228 572.179H497.22V573.96H497.228V572.179ZM496.33 525.017V573.069H498.11V525.017H496.33Z" fill="#2C3242" mask="url(#path-1-inside-1_2016_12)"/>
<mask id="mask0_2016_12" style="mask-type:alpha" maskUnits="userSpaceOnUse" x="179" y="567" width="300" height="125">
<path d="M478.747 626.732V567.347C376.823 627.601 308.868 636.496 201.714 600.215L179.883 657.598C208.367 672.152 284.919 699.014 363.26 690.032C441.601 681.05 468.975 645.444 478.747 626.732Z" fill="black"/>
</mask>
<g mask="url(#mask0_2016_12)">
<mask id="path-4-inside-2_2016_12" fill="white">
<path fill-rule="evenodd" clip-rule="evenodd" d="M496.827 547.15C494.038 571.247 476.692 594.888 444.79 613.306C374.872 653.673 261.514 653.673 191.597 613.306C159.694 594.888 142.348 571.247 139.559 547.15C136.236 575.864 153.582 605.227 191.597 627.175C261.514 667.541 374.872 667.541 444.79 627.175C482.805 605.227 500.151 575.864 496.827 547.15Z"/>
</mask>
<path fill-rule="evenodd" clip-rule="evenodd" d="M496.827 547.15C494.038 571.247 476.692 594.888 444.79 613.306C374.872 653.673 261.514 653.673 191.597 613.306C159.694 594.888 142.348 571.247 139.559 547.15C136.236 575.864 153.582 605.227 191.597 627.175C261.514 667.541 374.872 667.541 444.79 627.175C482.805 605.227 500.151 575.864 496.827 547.15Z" fill="#00A340"/>
<path d="M496.827 547.15L497.711 547.048L495.943 547.048L496.827 547.15ZM444.79 613.306L445.235 614.077L444.79 613.306ZM191.597 613.306L191.151 614.077L191.597 613.306ZM139.559 547.15L140.444 547.048H138.675L139.559 547.15ZM191.597 627.175L191.151 627.945L191.597 627.175ZM444.79 627.175L445.235 627.945L444.79 627.175ZM495.943 547.048C493.197 570.772 476.098 594.203 444.345 612.536L445.235 614.077C477.286 595.573 494.879 571.723 497.711 547.252L495.943 547.048ZM444.345 612.536C409.553 632.622 363.897 642.691 318.193 642.691C272.489 642.691 226.833 632.622 192.042 612.536L191.151 614.077C226.277 634.357 272.259 644.472 318.193 644.472C364.127 644.472 410.109 634.357 445.235 614.077L444.345 612.536ZM192.042 612.536C160.288 594.203 143.19 570.772 140.444 547.048L138.675 547.252C141.507 571.723 159.1 595.573 191.151 614.077L192.042 612.536ZM192.042 626.404C154.203 604.557 137.176 575.485 140.444 547.252L138.675 547.048C135.296 576.244 152.96 605.896 191.151 627.945L192.042 626.404ZM444.345 626.404C409.553 646.49 363.897 656.559 318.193 656.559C272.489 656.559 226.833 646.49 192.042 626.404L191.151 627.945C226.277 648.225 272.259 658.34 318.193 658.34C364.127 658.34 410.109 648.225 445.235 627.945L444.345 626.404ZM495.943 547.252C499.21 575.485 482.183 604.557 444.345 626.404L445.235 627.945C483.426 605.896 501.091 576.244 497.711 547.048L495.943 547.252Z" fill="#2C3242" mask="url(#path-4-inside-2_2016_12)"/>
<mask id="path-6-inside-3_2016_12" fill="white">
<path fill-rule="evenodd" clip-rule="evenodd" d="M497.164 555.471C495.985 580.992 478.527 606.31 444.79 625.788C374.872 666.155 261.514 666.155 191.597 625.788C157.86 606.31 140.402 580.993 139.223 555.471C137.958 582.841 155.416 610.446 191.597 631.335C261.514 671.702 374.872 671.702 444.79 631.335C480.971 610.446 498.429 582.841 497.164 555.471Z"/>
</mask>
<path fill-rule="evenodd" clip-rule="evenodd" d="M497.164 555.471C495.985 580.992 478.527 606.31 444.79 625.788C374.872 666.155 261.514 666.155 191.597 625.788C157.86 606.31 140.402 580.993 139.223 555.471C137.958 582.841 155.416 610.446 191.597 631.335C261.514 671.702 374.872 671.702 444.79 631.335C480.971 610.446 498.429 582.841 497.164 555.471Z" fill="#F8FAFA"/>
<path d="M497.164 555.471L498.053 555.43L496.274 555.43L497.164 555.471ZM444.79 625.788L445.235 626.559L444.79 625.788ZM191.597 625.788L192.042 625.017L191.597 625.788ZM139.223 555.471L140.112 555.43L138.333 555.43L139.223 555.471ZM191.597 631.335L192.042 630.564L191.597 631.335ZM444.79 631.335L445.235 632.106L444.79 631.335ZM496.274 555.43C495.114 580.543 477.925 605.629 444.345 625.017L445.235 626.559C479.129 606.99 496.855 581.441 498.053 555.512L496.274 555.43ZM444.345 625.017C409.553 645.104 363.897 655.173 318.193 655.173C272.489 655.173 226.833 645.104 192.042 625.017L191.151 626.559C226.277 646.839 272.259 656.953 318.193 656.953C364.127 656.953 410.109 646.839 445.235 626.559L444.345 625.017ZM192.042 625.017C158.462 605.63 141.272 580.544 140.112 555.43L138.333 555.512C139.532 581.442 157.258 606.99 191.151 626.559L192.042 625.017ZM192.042 630.564C156.029 609.772 138.868 582.431 140.112 555.512L138.333 555.43C137.048 583.252 154.803 611.121 191.151 632.106L192.042 630.564ZM444.345 630.564C409.553 650.651 363.897 660.72 318.193 660.72C272.489 660.72 226.833 650.651 192.042 630.564L191.151 632.106C226.277 652.386 272.259 662.501 318.193 662.501C364.127 662.501 410.109 652.386 445.235 632.106L444.345 630.564ZM496.274 555.512C497.518 582.43 480.358 609.772 444.345 630.564L445.235 632.106C481.583 611.12 499.339 583.252 498.053 555.43L496.274 555.512Z" fill="#2C3242" mask="url(#path-6-inside-3_2016_12)"/>
<path d="M478.153 587.327V603.977" stroke="#2C3242" stroke-width="0.890244"/>
</g>
<circle cx="146.181" cy="146.181" r="145.736" transform="matrix(0.866025 -0.5 0.866025 0.5 65 524.96)" fill="#F8FAFA" stroke="#2C3242" stroke-width="0.890244"/>
<circle cx="132.398" cy="132.398" r="131.953" transform="matrix(0.866025 -0.5 0.866025 0.5 88.8724 522.186)" fill="#1E1E1E" stroke="#2C3242" stroke-width="0.890244"/>
<circle cx="124.145" cy="124.145" r="123.7" transform="matrix(0.866025 -0.5 0.866025 0.5 103.168 528.307)" fill="#F8FAFA" stroke="#2C3242" stroke-width="0.890244"/>
<circle cx="75.6174" cy="75.6174" r="75.1723" transform="matrix(0.866025 -0.5 0.866025 0.5 187.22 523.245)" fill="#2C3242" stroke="#2C3242" stroke-width="0.890244"/>
<mask id="path-13-inside-4_2016_12" fill="white">
<path fill-rule="evenodd" clip-rule="evenodd" d="M408.7 449.997H227.681V522.283H227.683C227.701 535.643 236.537 549 254.193 559.193C289.539 579.6 346.847 579.6 382.194 559.193C399.867 548.989 408.704 535.616 408.704 522.243H408.7V449.997Z"/>
</mask>
<path fill-rule="evenodd" clip-rule="evenodd" d="M408.7 449.997H227.681V522.283H227.683C227.701 535.643 236.537 549 254.193 559.193C289.539 579.6 346.847 579.6 382.194 559.193C399.867 548.989 408.704 535.616 408.704 522.243H408.7V449.997Z" fill="#DCE8E6"/>
<path d="M227.681 449.997V449.107H226.791V449.997H227.681ZM408.7 449.997H409.59V449.107H408.7V449.997ZM227.681 522.283H226.791V523.173H227.681V522.283ZM227.683 522.283L228.573 522.282L228.572 521.393H227.683V522.283ZM254.193 559.193L254.638 558.422L254.193 559.193ZM382.194 559.193L381.749 558.422L382.194 559.193ZM408.704 522.243L409.594 522.243L409.594 521.353H408.704V522.243ZM408.7 522.243H407.81V523.133H408.7V522.243ZM227.681 450.887H408.7V449.107H227.681V450.887ZM228.572 522.283V449.997H226.791V522.283H228.572ZM227.683 521.393H227.681V523.173H227.683V521.393ZM226.792 522.284C226.811 536.074 235.93 549.677 253.748 559.964L254.638 558.422C237.145 548.322 228.59 535.212 228.573 522.282L226.792 522.284ZM253.748 559.964C271.588 570.264 294.915 575.389 318.193 575.389C341.472 575.389 364.799 570.264 382.639 559.964L381.749 558.422C364.243 568.529 341.242 573.608 318.193 573.608C295.144 573.608 272.144 568.529 254.638 558.422L253.748 559.964ZM382.639 559.964C400.474 549.667 409.594 536.046 409.594 522.243L407.814 522.243C407.813 535.186 399.26 548.312 381.749 558.422L382.639 559.964ZM408.704 521.353H408.7V523.133H408.704V521.353ZM407.81 449.997V522.243H409.59V449.997H407.81Z" fill="#2C3242" mask="url(#path-13-inside-4_2016_12)"/>
<circle cx="73.9016" cy="73.9016" r="73.7014" transform="matrix(0.866025 -0.5 0.866025 0.5 190.192 442.449)" fill="#F8FAFA" stroke="#2C3242" stroke-width="0.400339"/>
<mask id="path-16-inside-5_2016_12" fill="white">
<path fill-rule="evenodd" clip-rule="evenodd" d="M345.13 354.259C330.977 346.087 308.03 346.087 293.877 354.259L235.124 388.18H174.317V429.666H177.642C177.475 435.144 181.011 440.653 188.251 444.833L294.03 505.904C308.184 514.076 331.13 514.076 345.283 505.904L450.909 444.921C458.188 440.719 461.723 435.173 461.515 429.666H464.959V388.18H403.883L345.13 354.259Z"/>
</mask>
<path fill-rule="evenodd" clip-rule="evenodd" d="M345.13 354.259C330.977 346.087 308.03 346.087 293.877 354.259L235.124 388.18H174.317V429.666H177.642C177.475 435.144 181.011 440.653 188.251 444.833L294.03 505.904C308.184 514.076 331.13 514.076 345.283 505.904L450.909 444.921C458.188 440.719 461.723 435.173 461.515 429.666H464.959V388.18H403.883L345.13 354.259Z" fill="#DCE8E6"/>
<path d="M293.877 354.259L293.432 353.488L293.877 354.259ZM345.13 354.259L344.684 355.03L345.13 354.259ZM235.124 388.18V389.07H235.362L235.569 388.951L235.124 388.18ZM174.317 388.18V387.29H173.426V388.18H174.317ZM174.317 429.666H173.426V430.557H174.317V429.666ZM177.642 429.666L178.532 429.694L178.56 428.776H177.642V429.666ZM188.251 444.833L188.696 444.062L188.251 444.833ZM294.03 505.904L294.476 505.133L294.03 505.904ZM345.283 505.904L344.838 505.133L345.283 505.904ZM450.909 444.921L450.464 444.15L450.909 444.921ZM461.515 429.666V428.776H460.591L460.625 429.7L461.515 429.666ZM464.959 429.666V430.557H465.85V429.666H464.959ZM464.959 388.18H465.85V387.29H464.959V388.18ZM403.883 388.18L403.438 388.951L403.644 389.07H403.883V388.18ZM294.322 355.03C301.231 351.041 310.343 349.02 319.503 349.02C328.663 349.02 337.775 351.041 344.684 355.03L345.575 353.488C338.331 349.306 328.893 347.24 319.503 347.24C310.113 347.24 300.675 349.306 293.432 353.488L294.322 355.03ZM235.569 388.951L294.322 355.03L293.432 353.488L234.679 387.409L235.569 388.951ZM174.317 389.07H235.124V387.29H174.317V389.07ZM175.207 429.666V388.18H173.426V429.666H175.207ZM177.642 428.776H174.317V430.557H177.642V428.776ZM188.696 444.062C181.622 439.977 178.378 434.727 178.532 429.694L176.752 429.639C176.571 435.562 180.4 441.328 187.806 445.604L188.696 444.062ZM294.476 505.133L188.696 444.062L187.806 445.604L293.585 506.675L294.476 505.133ZM344.838 505.133C337.929 509.122 328.817 511.143 319.657 511.143C310.497 511.143 301.385 509.122 294.476 505.133L293.585 506.675C300.829 510.857 310.267 512.923 319.657 512.923C329.047 512.923 338.485 510.857 345.729 506.675L344.838 505.133ZM450.464 444.15L344.838 505.133L345.729 506.675L451.354 445.692L450.464 444.15ZM460.625 429.7C460.817 434.759 457.576 440.044 450.464 444.15L451.354 445.692C458.8 441.394 462.63 435.588 462.405 429.633L460.625 429.7ZM464.959 428.776H461.515V430.557H464.959V428.776ZM464.069 388.18V429.666H465.85V388.18H464.069ZM403.883 389.07H464.959V387.29H403.883V389.07ZM344.684 355.03L403.438 388.951L404.328 387.409L345.575 353.488L344.684 355.03Z" fill="#2C3242" mask="url(#path-16-inside-5_2016_12)"/>
<mask id="path-18-inside-6_2016_12" fill="white">
<path fill-rule="evenodd" clip-rule="evenodd" d="M186.602 419.612L190.022 421.586L190.022 433.792L186.602 431.818L186.602 419.612ZM192.51 423.022L195.93 424.997L195.93 437.203L192.51 435.229L192.51 423.022ZM201.837 428.408L198.417 426.433L198.417 438.639L201.837 440.614L201.837 428.408ZM204.324 429.844L207.744 431.818L207.744 444.025L204.324 442.05L204.324 429.844ZM213.651 435.228L210.231 433.254L210.231 445.46L213.651 447.435L213.651 435.228Z"/>
</mask>
<path fill-rule="evenodd" clip-rule="evenodd" d="M186.602 419.612L190.022 421.586L190.022 433.792L186.602 431.818L186.602 419.612ZM192.51 423.022L195.93 424.997L195.93 437.203L192.51 435.229L192.51 423.022ZM201.837 428.408L198.417 426.433L198.417 438.639L201.837 440.614L201.837 428.408ZM204.324 429.844L207.744 431.818L207.744 444.025L204.324 442.05L204.324 429.844ZM213.651 435.228L210.231 433.254L210.231 445.46L213.651 447.435L213.651 435.228Z" fill="#00A340"/>
<path d="M190.022 421.586L190.458 421.838L190.458 421.335L190.022 421.084L190.022 421.586ZM186.602 419.612L186.602 419.109L186.167 418.858L186.167 419.36L186.602 419.612ZM190.022 433.792L190.022 434.295L190.458 434.546L190.458 434.044L190.022 433.792ZM186.602 431.818L186.167 431.567L186.167 432.069L186.602 432.321L186.602 431.818ZM195.93 424.997L196.365 425.248L196.365 424.746L195.93 424.494L195.93 424.997ZM192.51 423.022L192.51 422.52L192.074 422.268L192.074 422.771L192.51 423.022ZM195.93 437.203L195.93 437.706L196.365 437.957L196.365 437.455L195.93 437.203ZM192.51 435.229L192.074 434.977L192.074 435.48L192.51 435.731L192.51 435.229ZM198.417 426.433L198.417 425.93L197.982 425.679L197.982 426.182L198.417 426.433ZM201.837 428.408L202.272 428.659L202.272 428.156L201.837 427.905L201.837 428.408ZM198.417 438.639L197.982 438.388L197.982 438.891L198.417 439.142L198.417 438.639ZM201.837 440.614L201.837 441.117L202.272 441.368L202.272 440.865L201.837 440.614ZM207.744 431.818L208.179 432.07L208.179 431.567L207.744 431.316L207.744 431.818ZM204.324 429.844L204.324 429.341L203.889 429.09L203.889 429.592L204.324 429.844ZM207.744 444.025L207.744 444.527L208.179 444.779L208.179 444.276L207.744 444.025ZM204.324 442.05L203.889 441.799L203.889 442.301L204.324 442.553L204.324 442.05ZM210.231 433.254L210.231 432.751L209.796 432.5L209.796 433.003L210.231 433.254ZM213.651 435.228L214.087 435.48L214.087 434.977L213.651 434.726L213.651 435.228ZM210.231 445.46L209.796 445.209L209.796 445.712L210.231 445.963L210.231 445.46ZM213.651 447.435L213.651 447.937L214.087 448.189L214.087 447.686L213.651 447.435ZM190.022 421.084L186.602 419.109L186.602 420.114L190.022 422.089L190.022 421.084ZM190.458 434.044L190.458 421.838L189.587 421.335L189.587 433.541L190.458 434.044ZM186.602 432.321L190.022 434.295L190.022 433.29L186.602 431.315L186.602 432.321ZM186.167 419.36L186.167 431.567L187.038 432.069L187.038 419.863L186.167 419.36ZM195.93 424.494L192.51 422.52L192.51 423.525L195.93 425.5L195.93 424.494ZM196.365 437.455L196.365 425.248L195.494 424.746L195.494 436.952L196.365 437.455ZM192.51 435.731L195.93 437.706L195.93 436.701L192.51 434.726L192.51 435.731ZM192.074 422.771L192.074 434.977L192.945 435.48L192.945 423.274L192.074 422.771ZM198.417 426.936L201.837 428.91L201.837 427.905L198.417 425.93L198.417 426.936ZM198.852 438.891L198.852 426.684L197.982 426.182L197.982 438.388L198.852 438.891ZM201.837 440.111L198.417 438.137L198.417 439.142L201.837 441.117L201.837 440.111ZM201.402 428.156L201.402 440.363L202.272 440.865L202.272 428.659L201.402 428.156ZM207.744 431.316L204.324 429.341L204.324 430.346L207.744 432.321L207.744 431.316ZM208.179 444.276L208.179 432.07L207.309 431.567L207.309 443.773L208.179 444.276ZM204.324 442.553L207.744 444.527L207.744 443.522L204.324 441.547L204.324 442.553ZM203.889 429.592L203.889 441.799L204.759 442.301L204.759 430.095L203.889 429.592ZM210.231 433.757L213.651 435.731L213.651 434.726L210.231 432.751L210.231 433.757ZM210.667 445.712L210.667 433.505L209.796 433.003L209.796 445.209L210.667 445.712ZM213.651 446.932L210.231 444.958L210.231 445.963L213.651 447.937L213.651 446.932ZM213.216 434.977L213.216 447.183L214.087 447.686L214.087 435.48L213.216 434.977Z" fill="#2C3242" mask="url(#path-18-inside-6_2016_12)"/>
<mask id="path-20-inside-7_2016_12" fill="white">
<path fill-rule="evenodd" clip-rule="evenodd" d="M354.506 474.506L357.926 472.531L357.926 484.738L354.506 486.712L354.506 474.506ZM342.691 481.327L346.111 479.353L346.111 491.559L342.691 493.533L342.691 481.327ZM336.784 484.738L340.204 482.764L340.204 494.97L336.784 496.945L336.784 484.738ZM352.018 475.943L348.598 477.917L348.598 490.123L352.018 488.149L352.018 475.943ZM363.833 469.121L360.413 471.096L360.413 483.302L363.833 481.327L363.833 469.121Z"/>
</mask>
<path fill-rule="evenodd" clip-rule="evenodd" d="M354.506 474.506L357.926 472.531L357.926 484.738L354.506 486.712L354.506 474.506ZM342.691 481.327L346.111 479.353L346.111 491.559L342.691 493.533L342.691 481.327ZM336.784 484.738L340.204 482.764L340.204 494.97L336.784 496.945L336.784 484.738ZM352.018 475.943L348.598 477.917L348.598 490.123L352.018 488.149L352.018 475.943ZM363.833 469.121L360.413 471.096L360.413 483.302L363.833 481.327L363.833 469.121Z" fill="#00A340"/>
<path d="M357.926 472.531L358.361 472.28L358.361 471.777L357.926 472.029L357.926 472.531ZM354.506 474.506L354.506 474.003L354.07 474.254L354.07 474.757L354.506 474.506ZM357.926 484.738L357.926 485.24L358.361 484.989L358.361 484.486L357.926 484.738ZM354.506 486.712L354.07 486.963L354.07 487.466L354.506 487.215L354.506 486.712ZM346.111 479.353L346.546 479.101L346.546 478.599L346.111 478.85L346.111 479.353ZM342.691 481.327L342.691 480.825L342.256 481.076L342.256 481.579L342.691 481.327ZM346.111 491.559L346.111 492.062L346.546 491.81L346.546 491.308L346.111 491.559ZM342.691 493.533L342.256 493.785L342.256 494.287L342.691 494.036L342.691 493.533ZM340.204 482.764L340.639 482.513L340.639 482.01L340.204 482.261L340.204 482.764ZM336.784 484.738L336.784 484.236L336.348 484.487L336.348 484.99L336.784 484.738ZM340.204 494.97L340.204 495.473L340.639 495.221L340.639 494.719L340.204 494.97ZM336.784 496.945L336.348 497.196L336.348 497.699L336.784 497.447L336.784 496.945ZM348.598 477.917L348.598 477.414L348.163 477.666L348.163 478.168L348.598 477.917ZM352.018 475.943L352.453 475.691L352.453 475.189L352.018 475.44L352.018 475.943ZM348.598 490.123L348.163 490.375L348.163 490.877L348.598 490.626L348.598 490.123ZM352.018 488.149L352.018 488.651L352.453 488.4L352.453 487.897L352.018 488.149ZM360.413 471.096L360.413 470.593L359.977 470.844L359.977 471.347L360.413 471.096ZM363.833 469.121L364.268 468.87L364.268 468.367L363.833 468.618L363.833 469.121ZM360.413 483.302L359.977 483.553L359.977 484.056L360.413 483.805L360.413 483.302ZM363.833 481.327L363.833 481.83L364.268 481.579L364.268 481.076L363.833 481.327ZM357.926 472.029L354.506 474.003L354.506 475.008L357.926 473.034L357.926 472.029ZM358.361 484.486L358.361 472.28L357.49 472.783L357.49 484.989L358.361 484.486ZM354.506 487.215L357.926 485.24L357.926 484.235L354.506 486.209L354.506 487.215ZM354.07 474.757L354.07 486.963L354.941 486.461L354.941 474.254L354.07 474.757ZM346.111 478.85L342.691 480.825L342.691 481.83L346.111 479.855L346.111 478.85ZM346.546 491.308L346.546 479.101L345.676 479.604L345.676 491.81L346.546 491.308ZM342.691 494.036L346.111 492.062L346.111 491.056L342.691 493.031L342.691 494.036ZM342.256 481.579L342.256 493.785L343.126 493.282L343.126 481.076L342.256 481.579ZM340.204 482.261L336.784 484.236L336.784 485.241L340.204 483.267L340.204 482.261ZM340.639 494.719L340.639 482.513L339.768 483.015L339.768 495.221L340.639 494.719ZM336.784 497.447L340.204 495.473L340.204 494.467L336.784 496.442L336.784 497.447ZM336.348 484.99L336.348 497.196L337.219 496.693L337.219 484.487L336.348 484.99ZM348.598 478.42L352.018 476.445L352.018 475.44L348.598 477.414L348.598 478.42ZM349.033 489.872L349.033 477.666L348.163 478.168L348.163 490.375L349.033 489.872ZM352.018 487.646L348.598 489.621L348.598 490.626L352.018 488.651L352.018 487.646ZM351.583 476.194L351.583 488.4L352.453 487.897L352.453 475.691L351.583 476.194ZM360.413 471.598L363.833 469.624L363.833 468.618L360.413 470.593L360.413 471.598ZM360.848 483.051L360.848 470.844L359.977 471.347L359.977 483.553L360.848 483.051ZM363.833 480.825L360.413 482.799L360.413 483.805L363.833 481.83L363.833 480.825ZM363.397 469.372L363.397 481.579L364.268 481.076L364.268 468.87L363.397 469.372Z" fill="#2C3242" mask="url(#path-20-inside-7_2016_12)"/>
<rect x="-2.65313e-08" y="0.445122" width="180.435" height="180.257" rx="29.1457" transform="matrix(0.866025 0.5 -0.866025 0.5 319.889 298.2)" fill="#F8FAFA" stroke="#2C3242" stroke-width="0.890244"/>
<path d="M319.615 471.931V513.536" stroke="#2C3242" stroke-width="0.890244"/>
<mask id="path-24-inside-8_2016_12" fill="white">
<path fill-rule="evenodd" clip-rule="evenodd" d="M429.145 252.821H207.256V380.407H209.812C209.986 384.363 212.688 388.289 217.918 391.308L298.667 437.929C309.487 444.176 327.03 444.176 337.851 437.929L418.483 391.376C423.742 388.34 426.445 384.386 426.592 380.407H429.145V252.821Z"/>
</mask>
<path fill-rule="evenodd" clip-rule="evenodd" d="M429.145 252.821H207.256V380.407H209.812C209.986 384.363 212.688 388.289 217.918 391.308L298.667 437.929C309.487 444.176 327.03 444.176 337.851 437.929L418.483 391.376C423.742 388.34 426.445 384.386 426.592 380.407H429.145V252.821Z" fill="#DCE8E6"/>
<path d="M207.256 252.821V252.14H206.575V252.821H207.256ZM429.145 252.821H429.826V252.14H429.145V252.821ZM207.256 380.407H206.575V381.088H207.256V380.407ZM209.812 380.407L210.492 380.377L210.463 379.727H209.812V380.407ZM217.918 391.308L217.577 391.898L217.918 391.308ZM298.667 437.929L298.327 438.518L298.667 437.929ZM337.851 437.929L338.191 438.518L337.851 437.929ZM418.483 391.376L418.823 391.965L418.483 391.376ZM426.592 380.407V379.727H425.936L425.912 380.382L426.592 380.407ZM429.145 380.407V381.088H429.826V380.407H429.145ZM207.256 253.501H429.145V252.14H207.256V253.501ZM207.936 380.407V252.821H206.575V380.407H207.936ZM209.812 379.727H207.256V381.088H209.812V379.727ZM218.258 390.719C213.149 387.769 210.653 384.021 210.492 380.377L209.132 380.437C209.32 384.706 212.228 388.809 217.577 391.898L218.258 390.719ZM299.008 437.339L218.258 390.719L217.577 391.898L298.327 438.518L299.008 437.339ZM337.51 437.339C332.228 440.389 325.262 441.934 318.259 441.934C311.256 441.934 304.29 440.389 299.008 437.339L298.327 438.518C303.865 441.716 311.08 443.295 318.259 443.295C325.438 443.295 332.653 441.716 338.191 438.518L337.51 437.339ZM418.143 390.786L337.51 437.339L338.191 438.518L418.823 391.965L418.143 390.786ZM425.912 380.382C425.776 384.046 423.281 387.82 418.143 390.786L418.823 391.965C424.203 388.859 427.113 384.726 427.272 380.432L425.912 380.382ZM429.145 379.727H426.592V381.088H429.145V379.727ZM428.464 252.821V380.407H429.826V252.821H428.464Z" fill="#2C3242" mask="url(#path-24-inside-8_2016_12)"/>
<rect x="-2.65313e-08" y="0.445122" width="137.582" height="137.447" rx="22.1774" transform="matrix(0.866025 0.5 -0.866025 0.5 318.52 183.64)" fill="#F8FAFA" stroke="#2C3242" stroke-width="0.890244"/>
<path d="M318.922 316.614L318.922 444.201" stroke="#2C3242" stroke-width="0.890244"/>
<rect x="0.385487" y="0.222561" width="26.6203" height="12.9843" transform="matrix(0.866026 -0.5 2.20305e-08 1 388.406 470.898)" fill="#2C3242" stroke="#2C3242" stroke-width="0.890244"/>
<rect x="0.385487" y="0.667683" width="8.22488" height="12.4264" transform="matrix(0.866026 0.5 -2.20305e-08 1 390.247 469.668)" fill="#DCE8E6" stroke="#2C3242" stroke-width="0.890244"/>
<rect x="0.770974" width="21.3256" height="7.41379" transform="matrix(0.866026 -0.5 0.866026 0.5 390.335 471.14)" fill="#F8FAFA" stroke="#2C3242" stroke-width="0.890244"/>
<rect x="0.385487" y="0.222561" width="21.3256" height="12.9843" transform="matrix(0.866026 -0.5 2.20305e-08 1 397.475 474.215)" fill="#00A340" stroke="#2C3242" stroke-width="0.890244"/>
<rect x="0.385487" y="0.667683" width="18.1875" height="12.4264" transform="matrix(0.866026 0.5 -2.20305e-08 1 372.717 461.126)" fill="#DCE8E6" stroke="#2C3242" stroke-width="0.890244"/>
<rect x="0.770974" width="26.4274" height="17.9988" transform="matrix(0.866026 -0.5 0.866026 0.5 372.266 462.286)" fill="#F8FAFA" stroke="#2C3242" stroke-width="0.890244"/>
<rect x="0.385487" y="0.222561" width="86.537" height="86.537" rx="10.2378" transform="matrix(0.866025 -0.5 2.20305e-08 1 339.777 331.953)" fill="#F8FAFA" stroke="#2C3242" stroke-width="0.890244"/>
<path d="M402.572 377.193L402.572 456.436L340.828 415.053C340.367 414.743 340.11 414.136 340.11 413.351L340.11 335.098C340.11 333.377 341.319 331.285 342.809 330.424L410.478 291.355C411.209 290.933 411.909 290.872 412.418 291.185L477.383 331.213L402.947 376.531L402.572 376.76L402.572 377.193Z" fill="url(#paint0_linear_2016_12)" stroke="#2C3242" stroke-width="0.890244"/>
<path d="M340.389 332.754L403.518 373.364" stroke="#2C3242" stroke-width="0.890244"/>
<rect x="0.385487" y="0.222561" width="89.3239" height="89.3239" rx="10.2378" transform="matrix(0.866025 -0.5 2.20305e-08 1 400.796 371.488)" fill="#00A340" stroke="#2C3242" stroke-width="0.890244"/>
<rect x="-0.217657" y="-0.125664" width="53.8883" height="61.0813" transform="matrix(0.866025 -0.5 2.20305e-08 1 418.634 376.797)" fill="#DCE8E6" stroke="#2C3242" stroke-width="0.502657"/>
<mask id="mask1_2016_12" style="mask-type:alpha" maskUnits="userSpaceOnUse" x="418" y="350" width="47" height="88">
<rect x="0.217657" y="0.125664" width="52.883" height="60.076" transform="matrix(0.866025 -0.5 2.20305e-08 1 418.692 377.015)" fill="#DCE8E6" stroke="#2C3242" stroke-width="0.502657"/>
</mask>
<g mask="url(#mask1_2016_12)">
<rect x="-1.49803e-08" y="0.251328" width="11.2428" height="53.3519" transform="matrix(0.866025 0.5 -0.866025 0.5 455.702 405.439)" fill="#F8FAFA" stroke="#2C3242" stroke-width="0.502657"/>
<rect x="0.217657" y="0.376993" width="11.2428" height="61.1823" transform="matrix(0.866025 0.5 -2.20305e-08 1 455.514 344.128)" fill="#2C3242" stroke="#2C3242" stroke-width="0.502657"/>
<ellipse cx="8.37063" cy="8.37062" rx="8.37063" ry="8.37062" transform="matrix(0.866025 -0.5 2.20305e-08 1 430.898 379.29)" fill="black"/>
<path d="M425.341 412.968C425.341 409.268 426.614 404.985 428.88 401.06C431.146 397.136 434.219 393.892 437.423 392.042C440.628 390.192 443.701 389.887 445.966 391.195C448.232 392.504 449.505 395.317 449.505 399.017L437.423 405.993L425.341 412.968Z" fill="black"/>
<rect opacity="0.5" width="53.3856" height="60.5787" transform="matrix(0.866025 -0.5 2.20305e-08 1 418.663 376.905)" fill="#00A340"/>
<mask id="mask2_2016_12" style="mask-type:alpha" maskUnits="userSpaceOnUse" x="418" y="350" width="47" height="88">
<rect opacity="0.5" width="53.3856" height="60.5787" transform="matrix(0.866025 -0.5 2.20305e-08 1 418.663 376.905)" fill="#10BD99"/>
</mask>
<g mask="url(#mask2_2016_12)">
<path opacity="0.2" d="M400.398 443.983L464.872 334.931" stroke="#DCE8E6" stroke-width="19.5854"/>
<path opacity="0.2" d="M420.036 450.26L484.51 341.209" stroke="#DCE8E6" stroke-width="7.12195"/>
</g>
</g>
<rect x="-0.385487" y="0.222561" width="82.3183" height="82.3183" rx="10.2378" transform="matrix(-0.866025 -0.5 -2.20305e-08 1 297.868 331.567)" fill="#F8FAFA" stroke="#2C3242" stroke-width="0.890244"/>
<path d="M235.74 377.193L235.74 456.436L297.483 415.053C297.945 414.743 298.202 414.136 298.202 413.351L298.202 335.098C298.202 333.377 296.993 331.285 295.503 330.424L227.834 291.355C227.102 290.933 226.403 290.872 225.894 291.185L160.929 331.213L235.365 376.531L235.74 376.76L235.74 377.193Z" fill="url(#paint1_linear_2016_12)" stroke="#2C3242" stroke-width="0.890244"/>
<path d="M297.923 332.754L234.794 373.364" stroke="#2C3242" stroke-width="0.890244"/>
<rect x="-0.385487" y="0.222561" width="89.3239" height="89.3239" rx="10.2378" transform="matrix(-0.866025 -0.5 -2.20305e-08 1 236.848 371.103)" fill="#00A340" stroke="#2C3242" stroke-width="0.890244"/>
<rect x="0.217657" y="-0.125664" width="53.8883" height="61.0813" transform="matrix(-0.866025 -0.5 -2.20305e-08 1 220.055 377.015)" fill="#DCE8E6" stroke="#2C3242" stroke-width="0.502657"/>
<mask id="mask3_2016_12" style="mask-type:alpha" maskUnits="userSpaceOnUse" x="173" y="350" width="47" height="88">
<rect x="-0.217657" y="0.125664" width="52.883" height="60.076" transform="matrix(-0.866025 -0.5 -2.20305e-08 1 219.243 376.797)" fill="#DCE8E6" stroke="#2C3242" stroke-width="0.502657"/>
</mask>
<g mask="url(#mask3_2016_12)">
<rect x="1.49803e-08" y="0.251328" width="11.2428" height="53.3519" transform="matrix(-0.866025 0.5 0.866025 0.5 182.61 405.439)" fill="#F8FAFA" stroke="#2C3242" stroke-width="0.502657"/>
<rect x="-0.217657" y="0.376993" width="11.2428" height="61.1823" transform="matrix(-0.866025 0.5 2.20305e-08 1 182.421 344.345)" fill="#2C3242" stroke="#2C3242" stroke-width="0.502657"/>
<ellipse cx="8.37063" cy="8.37062" rx="8.37063" ry="8.37062" transform="matrix(-0.866025 -0.5 -2.20305e-08 1 206.027 380.677)" fill="black"/>
<path d="M211.584 414.355C211.584 410.655 210.311 406.372 208.045 402.447C205.779 398.523 202.706 395.278 199.502 393.428C196.298 391.578 193.224 391.274 190.959 392.582C188.693 393.89 187.42 396.704 187.42 400.404L199.502 407.379L211.584 414.355Z" fill="black"/>
<rect opacity="0.5" width="53.3856" height="60.5787" transform="matrix(-0.866025 -0.5 -2.20305e-08 1 219.649 376.905)" fill="#00A340"/>
<mask id="mask4_2016_12" style="mask-type:alpha" maskUnits="userSpaceOnUse" x="173" y="350" width="47" height="88">
<rect opacity="0.5" width="53.3856" height="60.5787" transform="matrix(-0.866025 -0.5 -2.20305e-08 1 219.649 376.905)" fill="#10BD99"/>
</mask>
<g mask="url(#mask4_2016_12)">
<path opacity="0.2" d="M144.471 434.651L253.522 370.177" stroke="#DCE8E6" stroke-width="19.5854"/>
<path opacity="0.2" d="M138.194 415.014L247.245 350.54" stroke="#DCE8E6" stroke-width="7.12195"/>
</g>
</g>
<rect x="0.770974" width="89.3239" height="89.3239" rx="10.2378" transform="matrix(0.866025 -0.5 0.866025 0.5 240.176 249.942)" fill="#F8FAFA" stroke="#2C3242" stroke-width="0.890244"/>
<rect x="0.770974" width="89.3239" height="89.3239" rx="10.2378" transform="matrix(0.866025 -0.5 0.866025 0.5 240.176 249.942)" fill="#F8FAFA" stroke="#2C3242" stroke-width="0.890244"/>
<mask id="path-64-inside-9_2016_12" fill="white">
<path fill-rule="evenodd" clip-rule="evenodd" d="M245.497 249.346H244.334V183.107H392.035V249.346H390.903C390.999 251.349 389.724 253.37 387.076 254.898L327.452 289.322C322.342 292.272 314.058 292.272 308.948 289.322L249.324 254.898C246.677 253.37 245.401 251.349 245.497 249.346Z"/>
</mask>
<path fill-rule="evenodd" clip-rule="evenodd" d="M245.497 249.346H244.334V183.107H392.035V249.346H390.903C390.999 251.349 389.724 253.37 387.076 254.898L327.452 289.322C322.342 292.272 314.058 292.272 308.948 289.322L249.324 254.898C246.677 253.37 245.401 251.349 245.497 249.346Z" fill="url(#paint2_linear_2016_12)"/>
<path d="M244.334 249.346H243.444V250.237H244.334V249.346ZM245.497 249.346L246.386 249.389L246.431 248.456H245.497V249.346ZM244.334 183.107V182.217H243.444V183.107H244.334ZM392.035 183.107H392.926V182.217H392.035V183.107ZM392.035 249.346V250.237H392.926V249.346H392.035ZM390.903 249.346V248.456H389.969L390.014 249.389L390.903 249.346ZM387.076 254.898L387.521 255.669L387.076 254.898ZM327.452 289.322L327.007 288.551L327.452 289.322ZM308.948 289.322L308.503 290.093L308.948 289.322ZM249.324 254.898L249.769 254.127L249.324 254.898ZM244.334 250.237H245.497V248.456H244.334V250.237ZM243.444 183.107V249.346H245.224V183.107H243.444ZM392.035 182.217H244.334V183.997H392.035V182.217ZM392.926 249.346V183.107H391.145V249.346H392.926ZM390.903 250.237H392.035V248.456H390.903V250.237ZM390.014 249.389C390.088 250.939 389.111 252.696 386.631 254.127L387.521 255.669C390.337 254.044 391.91 251.759 391.793 249.304L390.014 249.389ZM386.631 254.127L327.007 288.551L327.897 290.093L387.521 255.669L386.631 254.127ZM327.007 288.551C324.619 289.93 321.434 290.644 318.2 290.644C314.967 290.644 311.781 289.93 309.394 288.551L308.503 290.093C311.225 291.665 314.737 292.425 318.2 292.425C321.663 292.425 325.175 291.665 327.897 290.093L327.007 288.551ZM309.394 288.551L249.769 254.127L248.879 255.669L308.503 290.093L309.394 288.551ZM249.769 254.127C247.29 252.696 246.312 250.939 246.386 249.389L244.608 249.304C244.49 251.759 246.064 254.044 248.879 255.669L249.769 254.127Z" fill="#2C3242" mask="url(#path-64-inside-9_2016_12)"/>
<rect x="0.770974" width="89.3239" height="89.3239" rx="10.2378" transform="matrix(0.866025 -0.5 0.866025 0.5 240.176 183.493)" fill="#00A340" stroke="#2C3242" stroke-width="0.890244"/>
<mask id="mask5_2016_12" style="mask-type:alpha" maskUnits="userSpaceOnUse" x="269" y="153" width="98" height="57">
<rect x="0.770974" width="55.0637" height="55.0637" transform="matrix(0.866025 -0.5 0.866025 0.5 269.846 182.106)" fill="#A7B1B5" stroke="#2C3242" stroke-width="0.890244"/>
</mask>
<g mask="url(#mask5_2016_12)">
<rect width="55.9539" height="55.9539" transform="matrix(0.866025 -0.5 0.866025 0.5 269.743 181.72)" fill="#A7B1B5"/>
<rect x="0.385487" y="0.667683" width="55.0632" height="10.62" transform="matrix(0.866025 0.5 -2.20305e-08 1 318.252 153.55)" fill="#2C3242" stroke="#2C3242" stroke-width="0.890244"/>
<rect x="0.385487" y="0.222561" width="55.0632" height="10.62" transform="matrix(0.866025 -0.5 2.20305e-08 1 271.101 181.672)" fill="#BBBEC3" stroke="#2C3242" stroke-width="0.890244"/>
<circle cx="8.37062" cy="8.37062" r="8.37062" transform="matrix(0.866025 0.5 -0.866025 0.5 328.136 173.723)" fill="black"/>
<path d="M296.192 185.75C299.396 183.9 303.742 182.86 308.274 182.86C312.805 182.86 317.151 183.9 320.356 185.75C323.56 187.6 325.36 190.109 325.36 192.725C325.36 195.341 323.56 197.851 320.356 199.701L308.274 192.725L296.192 185.75Z" fill="black"/>
<rect opacity="0.5" width="55.9539" height="55.9539" transform="matrix(0.866025 -0.5 0.866025 0.5 269.743 181.72)" fill="#00A340"/>
<mask id="mask6_2016_12" style="mask-type:alpha" maskUnits="userSpaceOnUse" x="269" y="153" width="98" height="57">
<rect opacity="0.5" width="55.9539" height="55.9539" transform="matrix(0.866025 -0.5 0.866025 0.5 269.743 181.72)" fill="#10BD99"/>
</mask>
<g mask="url(#mask6_2016_12)">
<path opacity="0.2" d="M244.461 185.101L371.016 179.37" stroke="#DCE8E6" stroke-width="19.5854"/>
<path opacity="0.2" d="M248.138 164.816L374.693 159.085" stroke="#DCE8E6" stroke-width="7.12195"/>
</g>
</g>
<ellipse cx="11.3768" cy="11.3768" rx="11.3768" ry="11.3768" transform="matrix(0.866025 0.5 -2.20305e-08 1 157.18 585.659)" fill="#2C3242"/>
<path d="M174.08 608.287C174.08 614.049 170.035 616.384 165.045 613.503C160.056 610.623 156.011 603.617 156.011 597.855C156.011 592.094 160.056 589.758 165.045 592.639C170.035 595.52 174.08 602.526 174.08 608.287Z" fill="#00A340" stroke="#2C3242" stroke-width="0.502657"/>
<circle cx="11.3768" cy="11.3768" r="11.3768" transform="matrix(0.848048 0.529919 -0.0348995 0.999391 185.637 607.464)" fill="#2C3242"/>
<path d="M201.737 630.668C201.535 636.426 197.412 638.619 192.526 635.566C187.64 632.513 183.842 625.37 184.043 619.612C184.244 613.854 188.368 611.661 193.254 614.714C198.14 617.767 201.938 624.91 201.737 630.668Z" fill="#00A340" stroke="#2C3242" stroke-width="0.502657"/>
<circle cx="12.6463" cy="12.6463" r="12.395" transform="matrix(0.866025 -0.5 0.866025 0.5 397.53 576.652)" fill="#00A340" stroke="#2C3242" stroke-width="0.502657"/>
<path d="M387.358 506.616C387.358 513.285 382.675 521.396 376.899 524.73C371.123 528.065 366.44 525.362 366.44 518.692C366.44 512.022 371.123 503.912 376.899 500.577C382.675 497.242 387.358 499.946 387.358 506.616Z" fill="#00A340" stroke="#2C3242" stroke-width="0.890244"/>
<path fill-rule="evenodd" clip-rule="evenodd" d="M411.433 544.995C411.433 543.028 410.031 540.675 408.302 539.739L377.582 523.108L377.582 500.919L427.815 528.114C429.544 529.05 430.946 531.403 430.946 533.37L430.946 581.934L411.433 571.37L411.433 544.995Z" fill="#2C3242"/>
<path fill-rule="evenodd" clip-rule="evenodd" d="M412.043 544.632C412.043 542.665 410.641 540.312 408.912 539.376L377.582 522.414L377.582 501.612L427.205 528.477C428.934 529.413 430.336 531.767 430.336 533.733L430.336 581.604L412.043 571.7L412.043 544.632Z" fill="#00A340"/>
<path d="M421.19 576.652L421.19 535.622L399.386 523.817" stroke="url(#paint3_linear_2016_12)" stroke-width="8.90244"/>
<circle cx="12.6463" cy="12.6463" r="12.395" transform="matrix(-0.866025 -0.5 -0.866025 0.5 243.446 576.651)" fill="#00A340" stroke="#2C3242" stroke-width="0.502657"/>
<path d="M253.619 506.615C253.619 513.285 258.301 521.395 264.077 524.73C269.853 528.065 274.536 525.362 274.536 518.692C274.536 512.022 269.853 503.912 264.077 500.577C258.301 497.242 253.619 499.946 253.619 506.615Z" fill="#00A340" stroke="#2C3242" stroke-width="0.890244"/>
<path fill-rule="evenodd" clip-rule="evenodd" d="M229.543 544.995C229.543 543.028 230.945 540.675 232.674 539.739L263.394 523.108L263.394 500.919L213.161 528.114C211.432 529.05 210.03 531.403 210.03 533.37L210.03 581.933L229.543 571.37L229.543 544.995Z" fill="#2C3242"/>
<path fill-rule="evenodd" clip-rule="evenodd" d="M228.933 544.632C228.933 542.665 230.335 540.312 232.065 539.375L263.394 522.414L263.394 501.612L213.771 528.477C212.042 529.413 210.64 531.766 210.64 533.733L210.64 581.603L228.933 571.7L228.933 544.632Z" fill="#00A340"/>
<path d="M219.787 576.652L219.787 535.621L241.591 523.817" stroke="url(#paint4_linear_2016_12)" stroke-width="8.90244"/>
<defs>
<linearGradient id="paint0_linear_2016_12" x1="339.725" y1="339.654" x2="434.949" y2="398.336" gradientUnits="userSpaceOnUse">
<stop offset="1" stop-color="#00A340" stop-opacity="0.1"/>
</linearGradient>
<linearGradient id="paint1_linear_2016_12" x1="298.587" y1="339.654" x2="203.363" y2="398.336" gradientUnits="userSpaceOnUse">
<stop offset="1" stop-color="#00A340" stop-opacity="0.11"/>
</linearGradient>
<linearGradient id="paint2_linear_2016_12" x1="326.463" y1="291.535" x2="325.324" y2="196.414" gradientUnits="userSpaceOnUse">
<stop offset="1" stop-color="#00A340" stop-opacity="0.54"/>
</linearGradient>
<linearGradient id="paint3_linear_2016_12" x1="399.386" y1="523.817" x2="397.48" y2="561.431" gradientUnits="userSpaceOnUse">
<stop stop-color="#DAFBF4" stop-opacity="0"/>
<stop offset="0.3116" stop-color="#DAFBF4" stop-opacity="0.385441"/>
<stop offset="1" stop-color="#DAFBF4" stop-opacity="0"/>
</linearGradient>
<linearGradient id="paint4_linear_2016_12" x1="241.591" y1="523.817" x2="243.496" y2="561.431" gradientUnits="userSpaceOnUse">
<stop stop-color="#DAFBF4" stop-opacity="0"/>
<stop offset="0.3116" stop-color="#DAFBF4" stop-opacity="0.385441"/>
<stop offset="1" stop-color="#DAFBF4" stop-opacity="0"/>
</linearGradient>
</defs>
</svg>
