<svg width="12" height="13" viewBox="0 0 12 13" fill="none" xmlns="http://www.w3.org/2000/svg">
<path d="M10.8564 1.18721L7.59837 0.229379C7.08131 0.0773652 6.54226 0 6 0C5.45774 0 4.91869 0.0773652 4.40163 0.229379L1.1436 1.18721C0.462818 1.38737 0 1.97529 0 2.63994V7.9057C0 8.87382 0.494182 9.78433 1.33135 10.3586L4.52313 12.5481C4.95101 12.8417 5.46854 13 6 13C6.53146 13 7.04899 12.8417 7.47687 12.5481L10.6687 10.3586C11.5058 9.78433 12 8.87382 12 7.9057V2.63994C12 1.97529 11.5372 1.38737 10.8564 1.18721ZM8.50702 5.78185L5.80715 8.2954C5.48763 8.59287 4.96958 8.59287 4.65008 8.2954L3.49298 7.21817C3.17345 6.9207 3.17345 6.4384 3.49298 6.14095C3.81251 5.84347 4.33055 5.84347 4.65005 6.14095L5.22859 6.67956L7.34992 4.70463C7.66945 4.40715 8.18749 4.40715 8.50699 4.70463C8.82655 5.00208 8.82655 5.48438 8.50702 5.78185Z" fill="#00A340"/>
</svg>
